{
  "accessors": [
    {
      "bufferView": 2,
      "componentType": 5126,
      "count": 1648,
      "max": [
        0.95281535387039185,
        0.80805951356887817,
        0.95281541347503662
      ],
      "min": [
        -0.95281541347503662,
        -0.99994468688964844,
        -0.9528154730796814
      ],
      "type": "VEC3"
    },
    {
      "bufferView": 2,
      "byteOffset": 19776,
      "componentType": 5126,
      "count": 1648,
      "max": [
        0.96538025140762329,
        1,
        0.96538025140762329
      ],
      "min": [
        -0.96538025140762329,
        -1,
        -0.96538025140762329
      ],
      "type": "VEC3"
    },
    {
      "bufferView": 1,
      "componentType": 5126,
      "count": 1648,
      "max": [
        0.98990803956985474,
        0.48990795016288757
      ],
      "min": [
        0.01009211502969265,
        0.01009211502969265
      ],
      "type": "VEC2"
    },
    {
      "bufferView": 0,
      "componentType": 5125,
      "count": 6144,
      "max": [
        1647
      ],
      "min": [
        0
      ],
      "type": "SCALAR"
    },
    {
      "bufferView": 2,
      "byteOffset": 39552,
      "componentType": 5126,
      "count": 5793,
      "max": [
        5.0066013336181641,
        1.0289908647537231,
        0.97414004802703857
      ],
      "min": [
        -0.94104582071304321,
        -2.2456414699554443,
        -0.95833343267440796
      ],
      "type": "VEC3"
    },
    {
      "bufferView": 2,
      "byteOffset": 109068,
      "componentType": 5126,
      "count": 5793,
      "max": [
        0.99992513656616211,
        0.9997866153717041,
        1
      ],
      "min": [
        -0.99979782104492188,
        -0.9999992847442627,
        -1
      ],
      "type": "VEC3"
    },
    {
      "bufferView": 1,
      "byteOffset": 13184,
      "componentType": 5126,
      "count": 5793,
      "max": [
        0.87500011920928955,
        1.0000001192092896
      ],
      "min": [
        0.125,
        0
      ],
      "type": "VEC2"
    },
    {
      "bufferView": 0,
      "byteOffset": 24576,
      "componentType": 5125,
      "count": 22272,
      "max": [
        5792
      ],
      "min": [
        0
      ],
      "type": "SCALAR"
    },
    {
      "bufferView": 2,
      "byteOffset": 178584,
      "componentType": 5126,
      "count": 5793,
      "max": [
        5.0066013336181641,
        1.0289908647537231,
        0.97414004802703857
      ],
      "min": [
        -0.94104582071304321,
        -2.2456414699554443,
        -0.95833343267440796
      ],
      "type": "VEC3"
    },
    {
      "bufferView": 2,
      "byteOffset": 248100,
      "componentType": 5126,
      "count": 5793,
      "max": [
        0.99992513656616211,
        0.9997866153717041,
        1
      ],
      "min": [
        -0.99979782104492188,
        -0.9999992847442627,
        -1
      ],
      "type": "VEC3"
    },
    {
      "bufferView": 1,
      "byteOffset": 59528,
      "componentType": 5126,
      "count": 5793,
      "max": [
        0.87500011920928955,
        1.0000001192092896
      ],
      "min": [
        0.125,
        0
      ],
      "type": "VEC2"
    },
    {
      "bufferView": 0,
      "byteOffset": 113664,
      "componentType": 5125,
      "count": 22272,
      "max": [
        5792
      ],
      "min": [
        0
      ],
      "type": "SCALAR"
    },
    {
      "bufferView": 2,
      "byteOffset": 317616,
      "componentType": 5126,
      "count": 5793,
      "max": [
        5.0066013336181641,
        1.0289908647537231,
        0.97414004802703857
      ],
      "min": [
        -0.94104582071304321,
        -2.2456414699554443,
        -0.95833343267440796
      ],
      "type": "VEC3"
    },
    {
      "bufferView": 2,
      "byteOffset": 387132,
      "componentType": 5126,
      "count": 5793,
      "max": [
        0.99992513656616211,
        0.9997866153717041,
        1
      ],
      "min": [
        -0.99979782104492188,
        -0.9999992847442627,
        -1
      ],
      "type": "VEC3"
    },
    {
      "bufferView": 1,
      "byteOffset": 105872,
      "componentType": 5126,
      "count": 5793,
      "max": [
        0.87500011920928955,
        1.0000001192092896
      ],
      "min": [
        0.125,
        0
      ],
      "type": "VEC2"
    },
    {
      "bufferView": 0,
      "byteOffset": 202752,
      "componentType": 5125,
      "count": 22272,
      "max": [
        5792
      ],
      "min": [
        0
      ],
      "type": "SCALAR"
    },
    {
      "bufferView": 2,
      "byteOffset": 456648,
      "componentType": 5126,
      "count": 5793,
      "max": [
        5.0066013336181641,
        1.0289908647537231,
        0.97414004802703857
      ],
      "min": [
        -0.94104582071304321,
        -2.2456414699554443,
        -0.95833343267440796
      ],
      "type": "VEC3"
    },
    {
      "bufferView": 2,
      "byteOffset": 526164,
      "componentType": 5126,
      "count": 5793,
      "max": [
        0.99992513656616211,
        0.9997866153717041,
        1
      ],
      "min": [
        -0.99979782104492188,
        -0.9999992847442627,
        -1
      ],
      "type": "VEC3"
    },
    {
      "bufferView": 1,
      "byteOffset": 152216,
      "componentType": 5126,
      "count": 5793,
      "max": [
        0.87500011920928955,
        1.0000001192092896
      ],
      "min": [
        0.125,
        0
      ],
      "type": "VEC2"
    },
    {
      "bufferView": 0,
      "byteOffset": 291840,
      "componentType": 5125,
      "count": 22272,
      "max": [
        5792
      ],
      "min": [
        0
      ],
      "type": "SCALAR"
    },
    {
      "bufferView": 2,
      "byteOffset": 595680,
      "componentType": 5126,
      "count": 20944,
      "max": [
        1.0059628486633301,
        0.16410747170448303,
        1.0059623718261719
      ],
      "min": [
        -1.0059621334075928,
        -1.0008108615875244,
        -1.005962610244751
      ],
      "type": "VEC3"
    },
    {
      "bufferView": 2,
      "byteOffset": 847008,
      "componentType": 5126,
      "count": 20944,
      "max": [
        1,
        1,
        1
      ],
      "min": [
        -1,
        -1,
        -1
      ],
      "type": "VEC3"
    },
    {
      "bufferView": 1,
      "byteOffset": 198560,
      "componentType": 5126,
      "count": 20944,
      "max": [
        1.0000001192092896,
        1.0000001192092896
      ],
      "min": [
        -0.040874127298593521,
        0.010000006295740604
      ],
      "type": "VEC2"
    },
    {
      "bufferView": 0,
      "byteOffset": 380928,
      "componentType": 5125,
      "count": 108288,
      "max": [
        20943
      ],
      "min": [
        0
      ],
      "type": "SCALAR"
    },
    {
      "bufferView": 2,
      "byteOffset": 1098336,
      "componentType": 5126,
      "count": 1219,
      "max": [
        0.80452585220336914,
        -0.89864438772201538,
        0.80452579259872437
      ],
      "min": [
        -0.80452579259872437,
        -0.89864528179168701,
        -0.80452585220336914
      ],
      "type": "VEC3"
    },
    {
      "bufferView": 2,
      "byteOffset": 1112964,
      "componentType": 5126,
      "count": 1219,
      "max": [
        0.70710676908493042,
        -0.70706844329833984,
        0.70710676908493042
      ],
      "min": [
        -0.70707625150680542,
        -1,
        -0.70709151029586792
      ],
      "type": "VEC3"
    },
    {
      "bufferView": 1,
      "byteOffset": 366112,
      "componentType": 5126,
      "count": 1219,
      "max": [
        0.79837560653686523,
        0.50000029802322388
      ],
      "min": [
        0.17410042881965637,
        0.49999994039535522
      ],
      "type": "VEC2"
    },
    {
      "bufferView": 0,
      "byteOffset": 814080,
      "componentType": 5125,
      "count": 3840,
      "max": [
        1218
      ],
      "min": [
        0
      ],
      "type": "SCALAR"
    },
    {
      "bufferView": 2,
      "byteOffset": 1127592,
      "componentType": 5126,
      "count": 498,
      "max": [
        0.56656140089035034,
        0.54630374908447266,
        0.56656140089035034
      ],
      "min": [
        -0.56656140089035034,
        -0.54630374908447266,
        -0.56656140089035034
      ],
      "type": "VEC3"
    },
    {
      "bufferView": 2,
      "byteOffset": 1133568,
      "componentType": 5126,
      "count": 498,
      "max": [
        0.99945163726806641,
        0.997772216796875,
        0.99945163726806641
      ],
      "min": [
        -0.99945163726806641,
        -0.72211927175521851,
        -0.99945163726806641
      ],
      "type": "VEC3"
    },
    {
      "bufferView": 1,
      "byteOffset": 375864,
      "componentType": 5126,
      "count": 498,
      "max": [
        1,
        1
      ],
      "min": [
        0,
        0.01000000536441803
      ],
      "type": "VEC2"
    },
    {
      "bufferView": 0,
      "byteOffset": 829440,
      "componentType": 5125,
      "count": 1716,
      "max": [
        497
      ],
      "min": [
        0
      ],
      "type": "SCALAR"
    },
    {
      "bufferView": 2,
      "byteOffset": 1139544,
      "componentType": 5126,
      "count": 592,
      "max": [
        0.5238298773765564,
        2.0670113563537598,
        0.52382993698120117
      ],
      "min": [
        -0.52382963895797729,
        -2.0670113563537598,
        -0.52382975816726685
      ],
      "type": "VEC3"
    },
    {
      "bufferView": 2,
      "byteOffset": 1146648,
      "componentType": 5126,
      "count": 592,
      "max": [
        0.99999642372131348,
        1,
        0.99999642372131348
      ],
      "min": [
        -0.99999642372131348,
        -1,
        -0.99999642372131348
      ],
      "type": "VEC3"
    },
    {
      "bufferView": 1,
      "byteOffset": 379848,
      "componentType": 5126,
      "count": 592,
      "max": [
        1.0000002384185791,
        1
      ],
      "min": [
        0,
        0
      ],
      "type": "VEC2"
    },
    {
      "bufferView": 0,
      "byteOffset": 836304,
      "componentType": 5125,
      "count": 2880,
      "max": [
        591
      ],
      "min": [
        0
      ],
      "type": "SCALAR"
    },
    {
      "bufferView": 2,
      "byteOffset": 1153752,
      "componentType": 5126,
      "count": 66,
      "max": [
        0.5238298773765564,
        0.15534335374832153,
        0.52382993698120117
      ],
      "min": [
        -0.52382963895797729,
        -0.049044232815504074,
        -0.52382975816726685
      ],
      "type": "VEC3"
    },
    {
      "bufferView": 2,
      "byteOffset": 1154544,
      "componentType": 5126,
      "count": 66,
      "max": [
        0.99999642372131348,
        0.01956312358379364,
        0.99999642372131348
      ],
      "min": [
        -0.99999642372131348,
        -0.0026857082266360521,
        -0.99999642372131348
      ],
      "type": "VEC3"
    },
    {
      "bufferView": 1,
      "byteOffset": 384584,
      "componentType": 5126,
      "count": 66,
      "max": [
        1,
        0.52407658100128174
      ],
      "min": [
        0,
        0.49239861965179443
      ],
      "type": "VEC2"
    },
    {
      "bufferView": 0,
      "byteOffset": 847824,
      "componentType": 5125,
      "count": 192,
      "max": [
        65
      ],
      "min": [
        0
      ],
      "type": "SCALAR"
    }
  ],
  "asset": {
    "extras": {
      "author": "Lou.Ky (https://sketchfab.com/Lou.Ky)",
      "license": "CC-BY-4.0 (http://creativecommons.org/licenses/by/4.0/)",
      "source": "https://sketchfab.com/3d-models/rocket-099d9ef43a77405e930ff52169b66d04",
      "title": "Rocket"
    },
    "generator": "Sketchfab-9.6.0",
    "version": "2.0"
  },
  "bufferViews": [
    {
      "buffer": 0,
      "byteLength": 848592,
      "byteOffset": 0,
      "name": "floatBufferViews",
      "target": 34963
    },
    {
      "buffer": 0,
      "byteLength": 385112,
      "byteOffset": 848592,
      "byteStride": 8,
      "name": "floatBufferViews",
      "target": 34962
    },
    {
      "buffer": 0,
      "byteLength": 1155336,
      "byteOffset": 1233704,
      "byteStride": 12,
      "name": "floatBufferViews",
      "target": 34962
    }
  ],
  "buffers": [
    {
      "byteLength": 2389040,
      "uri": "scene.bin"
    }
  ],
  "materials": [
    {
      "doubleSided": true,
      "emissiveFactor": [
        0,
        0,
        0
      ],
      "name": "tete",
      "pbrMetallicRoughness": {
        "baseColorFactor": [
          0.57112499999999999,
          0.0074990300000000003,
          0.0074990300000000003,
          1
        ],
        "metallicFactor": 1,
        "roughnessFactor": 0.29545500000000002
      }
    },
    {
      "doubleSided": true,
      "emissiveFactor": [
        0,
        0,
        0
      ],
      "name": "body",
      "pbrMetallicRoughness": {
        "baseColorFactor": [
          0.61720699999999995,
          0.59720200000000001,
          0.56471199999999999,
          1
        ],
        "metallicFactor": 0,
        "roughnessFactor": 1
      }
    },
    {
      "doubleSided": true,
      "emissiveFactor": [
        0,
        0,
        0
      ],
      "name": "glasss",
      "pbrMetallicRoughness": {
        "baseColorFactor": [
          0,
          0.29613800000000001,
          0.68668499999999999,
          1
        ],
        "metallicFactor": 0.913636,
        "roughnessFactor": 0.14999999999999999
      }
    }
  ],
  "meshes": [
    {
      "primitives": [
        {
          "attributes": {
            "NORMAL": 1,
            "POSITION": 0,
            "TEXCOORD_0": 2
          },
          "indices": 3,
          "material": 0,
          "mode": 4
        }
      ]
    },
    {
      "primitives": [
        {
          "attributes": {
            "NORMAL": 5,
            "POSITION": 4,
            "TEXCOORD_0": 6
          },
          "indices": 7,
          "material": 1,
          "mode": 4
        }
      ]
    },
    {
      "primitives": [
        {
          "attributes": {
            "NORMAL": 9,
            "POSITION": 8,
            "TEXCOORD_0": 10
          },
          "indices": 11,
          "material": 1,
          "mode": 4
        }
      ]
    },
    {
      "primitives": [
        {
          "attributes": {
            "NORMAL": 13,
            "POSITION": 12,
            "TEXCOORD_0": 14
          },
          "indices": 15,
          "material": 1,
          "mode": 4
        }
      ]
    },
    {
      "primitives": [
        {
          "attributes": {
            "NORMAL": 17,
            "POSITION": 16,
            "TEXCOORD_0": 18
          },
          "indices": 19,
          "material": 1,
          "mode": 4
        }
      ]
    },
    {
      "primitives": [
        {
          "attributes": {
            "NORMAL": 21,
            "POSITION": 20,
            "TEXCOORD_0": 22
          },
          "indices": 23,
          "material": 1,
          "mode": 4
        }
      ]
    },
    {
      "primitives": [
        {
          "attributes": {
            "NORMAL": 25,
            "POSITION": 24,
            "TEXCOORD_0": 26
          },
          "indices": 27,
          "material": 2,
          "mode": 4
        }
      ]
    },
    {
      "primitives": [
        {
          "attributes": {
            "NORMAL": 29,
            "POSITION": 28,
            "TEXCOORD_0": 30
          },
          "indices": 31,
          "material": 1,
          "mode": 4
        }
      ]
    },
    {
      "primitives": [
        {
          "attributes": {
            "NORMAL": 33,
            "POSITION": 32,
            "TEXCOORD_0": 34
          },
          "indices": 35,
          "material": 1,
          "mode": 4
        }
      ]
    },
    {
      "primitives": [
        {
          "attributes": {
            "NORMAL": 37,
            "POSITION": 36,
            "TEXCOORD_0": 38
          },
          "indices": 39,
          "material": 0,
          "mode": 4
        }
      ]
    }
  ],
  "nodes": [
    {
      "children": [
        1
      ],
      "name": "RootNode (gltf orientation matrix)",
      "rotation": [
        -0.70710678118654746,
        -0,
        -0,
        0.70710678118654757
      ]
    },
    {
      "children": [
        2
      ],
      "name": "RootNode (model correction matrix)"
    },
    {
      "children": [
        3
      ],
      "name": "root"
    },
    {
      "children": [
        4
      ],
      "matrix": [
        1,
        0,
        0,
        0,
        0,
        2.2204460492503131e-16,
        1,
        0,
        0,
        -1,
        2.2204460492503131e-16,
        0,
        0,
        0,
        0,
        1
      ],
      "name": "GLTF_SceneRootNode"
    },
    {
      "children": [
        5,
        7,
        9,
        11,
        13,
        15,
        18,
        20
      ],
      "matrix": [
        0.99989762089078948,
        0.014309008943288213,
        0,
        0,
        -0.014309008943288213,
        0.99989762089078948,
        0,
        0,
        0,
        0,
        1,
        0,
        -0.44116738438606262,
        10.959466934204102,
        0,
        1
      ],
      "name": "Empty.001_11"
    },
    {
      "children": [
        6
      ],
      "matrix": [
        0.33187976479530334,
        0,
        0,
        0,
        0,
        0.33187976479530334,
        0,
        0,
        0,
        0,
        0.33187973499298096,
        0,
        0.014097064733505249,
        -0.3937060534954071,
        0,
        1
      ],
      "name": "Cone_3"
    },
    {
      "mesh": 0,
      "name": ""
    },
    {
      "children": [
        8
      ],
      "matrix": [
        0.098364267054019294,
        -0.010014949992045429,
        -0,
        0,
        0.039053493212745101,
        0.38357338167658861,
        0,
        0,
        0,
        -0,
        0.08421798050403595,
        0,
        0.4176185131072998,
        -4.2039132118225098,
        0,
        1
      ],
      "name": "Cube_4"
    },
    {
      "mesh": 1,
      "name": ""
    },
    {
      "children": [
        10
      ],
      "matrix": [
        2.6415144625978479e-11,
        -0.010014949047382964,
        -0.0983642596611016,
        0,
        -2.0286347241853736e-09,
        0.38357338175201772,
        -0.039053492471899834,
        0,
        0.084217987954616547,
        4.4311947110856174e-10,
        -2.2499926814368822e-11,
        0,
        0,
        -4.2039132118225098,
        -0.41761848330497742,
        1
      ],
      "name": "Cube.001_5"
    },
    {
      "mesh": 2,
      "name": ""
    },
    {
      "children": [
        12
      ],
      "matrix": [
        -0.098364267203054204,
        -0.010014948528189106,
        3.8399998375406636e-08,
        0,
        -0.03905348750440877,
        0.38357338225778231,
        7.6033068597336159e-09,
        0,
        -3.2708396028473586e-08,
        -1.6608081169717859e-09,
        -0.084217980504029594,
        0,
        -0.41761854290962219,
        -4.203913688659668,
        0,
        1
      ],
      "name": "Cube.002_6"
    },
    {
      "mesh": 3,
      "name": ""
    },
    {
      "children": [
        14
      ],
      "matrix": [
        4.9809697063066123e-08,
        -0.010014945942075922,
        0.098364259977255522,
        0,
        2.0031782950090646e-08,
        0.38357338298491539,
        0.039053480362688291,
        0,
        -0.08421798795460575,
        5.5605079112743617e-11,
        4.2651968813743394e-08,
        0,
        0,
        -4.2039132118225098,
        0.41761848330497742,
        1
      ],
      "name": "Cube.003_7"
    },
    {
      "mesh": 4,
      "name": ""
    },
    {
      "children": [
        16,
        17
      ],
      "matrix": [
        1.603634697486087e-07,
        -0.3587270379066107,
        -1.069090998435336e-08,
        0,
        -8.7629154652238662e-08,
        1.7525810560339049e-08,
        -0.58806931972502985,
        0,
        0.35872703790660693,
        1.6036347134167676e-07,
        -5.3454487792112141e-08,
        0,
        0,
        -1.8254772424697876,
        0.0039258301258087158,
        1
      ],
      "name": "Cylinder_8"
    },
    {
      "mesh": 5,
      "name": ""
    },
    {
      "mesh": 6,
      "name": ""
    },
    {
      "children": [
        19
      ],
      "matrix": [
        1,
        0,
        0,
        0,
        0,
        1,
        0,
        0,
        0,
        0,
        1,
        0,
        0,
        -4.1004776954650879,
        0,
        1
      ],
      "name": "Cylinder.001_9"
    },
    {
      "mesh": 7,
      "name": ""
    },
    {
      "children": [
        21,
        22
      ],
      "matrix": [
        1,
        0,
        0,
        0,
        0,
        1,
        0,
        0,
        0,
        0,
        1,
        0,
        0.014031171798706055,
        -2.4137253761291504,
        0,
        1
      ],
      "name": "Sphere_10"
    },
    {
      "mesh": 8,
      "name": ""
    },
    {
      "mesh": 9,
      "name": ""
    }
  ],
  "scene": 0,
  "scenes": [
    {
      "name": "OSG_Scene",
      "nodes": [
        0
      ]
    }
  ]
}

